# xmcd
#
# Track frame offsets:
#	150
#	23710
#	46835
#	67495
#	108637
#	126057
#	163070
#	186542
#	220552
#	244640
#	278122
#	300610
#
# Disc length: 4358 seconds
#
# Revision: 1
# Processed by: cddbd v1.5.2PL0 Copyright (c) Steve Scherf et al.
# Submitted via: audiograbber 1.83.01
#
DISCID=ae11040c
DTITLE=Curts and the Kicks - Something's Wrong
DYEAR=1992
DGENRE=Blues
TTITLE0=You Don't Know What Love Is
TTITLE1=Cha-Dooky-Doo
TTITLE2=I'm the One
TTITLE3=Something's Wrong
TTITLE4=Walkin' Blues
TTITLE5=Little Wing
TTITLE6=Thats What The Blues Is All About
TTITLE7=I Just Want to Make Love To You
TTITLE8=Pack It Up
TTITLE9=Easy Chair Blues
TTITLE10=Killin' Floor
TTITLE11=Its All In Your Mind
EXTD=
EXTT0=
EXTT1=
EXTT2=
EXTT3=
EXTT4=
EXTT5=
EXTT6=
EXTT7=
EXTT8=
EXTT9=
EXTT10=
EXTT11=
PLAYORDER=
